<svg width="980" height="551" xmlns="http://www.w3.org/2000/svg" xmlns:xlink="http://www.w3.org/1999/xlink">
<path fill="#073b4c" d="M 82.09 164.69 Q 82.09 164.69 84.66 164.55 87.23 164.40 87.91 164.41 88.60 164.41 90.34 164.42 92.09 164.44 92.18 164.24 92.27 164.04 92.41 164.06 92.55 164.07 92.68 164.12 92.81 164.17 92.93 164.25 93.04 164.33 93.14 164.44 93.23 164.55 93.30 164.67 93.36 164.80 93.40 164.93 93.43 165.07 93.43 165.21 93.43 165.35 93.40 165.49 93.36 165.63 93.30 165.75 93.23 165.88 93.14 165.99 93.04 166.09 92.93 166.17 92.81 166.25 92.68 166.30 92.55 166.35 92.41 166.37 92.27 166.39 92.08 166.35 91.89 166.32 91.72 166.23 91.55 166.15 91.42 166.01 91.29 165.87 91.21 165.70 91.14 165.52 91.11 165.34 91.09 165.15 91.14 164.96 91.18 164.78 91.28 164.61 91.37 164.45 91.52 164.33 91.66 164.21 91.84 164.14 92.02 164.07 92.21 164.06 92.40 164.05 92.58 164.10 92.76 164.15 92.92 164.26 93.07 164.36 93.19 164.51 93.30 164.66 93.36 164.84 93.42 165.02 93.42 165.21 93.42 165.40 93.36 165.58 93.30 165.76 93.19 165.92 93.07 166.07 92.91 166.17 92.76 166.28 92.57 166.33 92.39 166.38 92.20 166.37 92.01 166.36 91.84 166.29 91.66 166.22 91.52 166.09 91.37 165.97 91.27 165.81 91.18 165.64 91.14 165.46 91.09 165.27 91.12 165.09 91.14 164.90 91.22 164.72 91.30 164.55 91.43 164.41 91.56 164.28 91.73 164.19 91.89 164.10 92.08 164.07 92.27 164.04 92.27 164.04 92.27 164.04 92.41 164.06 92.55 164.07 92.68 164.12 92.81 164.17 92.93 164.25 93.04 164.33 93.14 164.44 93.23 164.55 93.30 164.67 93.36 164.80 93.40 164.93 93.43 165.07 93.43 165.21 93.43 165.35 93.40 165.49 93.36 165.63 93.30 165.75 93.23 165.88 93.14 165.98 93.04 166.09 92.93 166.17 92.81 166.25 92.68 166.30 92.55 166.35 92.41 166.37 92.27 166.39 92.18 166.78 92.09 167.18 90.34 167.20 88.60 167.21 87.91 167.21 87.23 167.22 84.66 167.07 82.09 166.93 81.95 166.91 81.82 166.90 81.69 166.85 81.57 166.80 81.46 166.72 81.35 166.65 81.26 166.55 81.17 166.44 81.10 166.33 81.04 166.21 81.01 166.08 80.98 165.94 80.98 165.81 80.98 165.67 81.01 165.54 81.04 165.41 81.10 165.29 81.17 165.17 81.26 165.07 81.35 164.97 81.46 164.90 81.57 164.82 81.69 164.77 81.82 164.72 81.95 164.71 82.09 164.69 82.09 164.69 Z"></path><path fill="#073b4c" d="M 92.42 160.26 Q 92.42 160.26 94.22 161.88 96.03 163.51 96.65 164.16 97.28 164.81 97.88 165.26 98.49 165.71 98.37 166.79 98.26 167.88 97.30 168.36 96.35 168.84 95.61 169.37 94.87 169.89 93.55 171.61 92.23 173.32 92.11 173.38 91.99 173.44 91.86 173.47 91.73 173.50 91.59 173.50 91.45 173.49 91.32 173.46 91.19 173.42 91.07 173.36 90.95 173.29 90.85 173.20 90.75 173.10 90.68 172.99 90.61 172.88 90.56 172.75 90.52 172.62 90.50 172.49 90.49 172.35 90.51 172.22 90.53 172.08 90.58 171.95 90.63 171.83 90.71 171.72 90.79 171.61 90.90 171.52 91.00 171.43 91.51 171.38 92.03 171.33 92.18 171.42 92.34 171.51 92.46 171.65 92.58 171.79 92.65 171.96 92.72 172.13 92.73 172.31 92.74 172.49 92.69 172.67 92.64 172.84 92.54 173.00 92.44 173.15 92.30 173.26 92.15 173.37 91.98 173.43 91.81 173.49 91.63 173.49 91.44 173.49 91.27 173.44 91.10 173.38 90.95 173.27 90.80 173.16 90.70 173.01 90.60 172.86 90.55 172.68 90.50 172.51 90.51 172.33 90.51 172.14 90.58 171.97 90.65 171.80 90.76 171.66 90.88 171.52 91.04 171.43 91.19 171.33 91.37 171.29 91.55 171.25 91.73 171.27 91.91 171.29 92.08 171.36 92.24 171.44 92.38 171.56 92.51 171.69 92.60 171.85 92.68 172.01 92.71 172.19 92.75 172.37 92.72 172.55 92.69 172.73 92.60 172.89 92.52 173.05 92.39 173.18 92.26 173.31 92.09 173.38 91.93 173.46 91.75 173.48 91.56 173.50 91.90 173.41 92.23 173.32 92.11 173.38 91.99 173.44 91.86 173.47 91.73 173.50 91.59 173.50 91.45 173.49 91.32 173.46 91.19 173.42 91.07 173.36 90.95 173.29 90.85 173.20 90.75 173.10 90.68 172.99 90.61 172.88 90.56 172.75 90.52 172.62 90.50 172.49 90.49 172.35 90.51 172.22 90.53 172.08 90.58 171.95 90.63 171.83 90.71 171.72 90.79 171.61 90.90 171.52 91.00 171.43 92.18 169.52 93.35 167.60 94.40 166.95 95.45 166.31 96.21 166.19 96.97 166.08 96.80 166.56 96.64 167.05 96.04 166.87 95.45 166.69 94.78 166.05 94.12 165.42 92.49 163.61 90.87 161.81 90.79 161.70 90.70 161.60 90.65 161.48 90.60 161.36 90.57 161.23 90.55 161.10 90.56 160.97 90.56 160.83 90.60 160.71 90.64 160.58 90.71 160.47 90.78 160.36 90.87 160.26 90.97 160.17 91.08 160.10 91.19 160.03 91.32 159.99 91.44 159.95 91.58 159.94 91.71 159.94 91.84 159.96 91.97 159.98 92.09 160.04 92.21 160.09 92.31 160.17 92.42 160.26 92.42 160.26 Z"></path><path fill="#073b4c" d="M 111.17 150.28 Q 111.17 150.28 111.58 152.00 111.98 153.71 112.55 157.70 113.13 161.69 113.44 164.75 113.75 167.80 113.77 169.99 113.79 172.18 113.67 173.48 113.55 174.78 113.53 174.90 113.52 175.02 113.48 175.13 113.43 175.25 113.37 175.35 113.30 175.45 113.21 175.53 113.12 175.61 113.01 175.66 112.91 175.72 112.79 175.75 112.67 175.78 112.55 175.78 112.43 175.78 112.31 175.75 112.20 175.73 112.09 175.67 111.98 175.61 111.89 175.53 111.80 175.46 111.73 175.36 111.66 175.26 111.62 175.15 111.58 175.03 111.56 174.91 111.55 174.79 111.57 174.63 111.60 174.47 111.67 174.33 111.75 174.18 111.87 174.07 111.98 173.96 112.13 173.89 112.28 173.82 112.44 173.81 112.60 173.79 112.76 173.82 112.92 173.86 113.05 173.94 113.19 174.03 113.30 174.15 113.40 174.27 113.46 174.42 113.52 174.57 113.53 174.73 113.54 174.90 113.50 175.05 113.45 175.21 113.36 175.34 113.27 175.48 113.14 175.57 113.01 175.67 112.86 175.72 112.71 175.77 112.55 175.77 112.38 175.77 112.23 175.72 112.08 175.67 111.95 175.57 111.82 175.48 111.73 175.34 111.64 175.21 111.60 175.05 111.55 174.90 111.56 174.73 111.57 174.57 111.63 174.42 111.69 174.27 111.79 174.15 111.90 174.03 112.04 173.94 112.18 173.86 112.33 173.82 112.49 173.79 112.65 173.81 112.81 173.82 112.96 173.89 113.11 173.96 113.22 174.07 113.34 174.18 113.42 174.33 113.49 174.47 113.52 174.63 113.55 174.79 113.55 174.78 113.55 174.78 113.53 174.90 113.52 175.02 113.48 175.13 113.43 175.25 113.37 175.35 113.30 175.45 113.21 175.53 113.12 175.61 113.01 175.66 112.91 175.72 112.79 175.75 112.67 175.78 112.55 175.78 112.43 175.78 112.31 175.75 112.20 175.73 112.09 175.67 111.98 175.61 111.89 175.54 111.80 175.46 111.73 175.36 111.66 175.26 111.62 175.15 111.58 175.03 111.56 174.91 111.55 174.79 111.43 173.50 111.30 172.20 111.29 170.13 111.28 168.06 110.98 165.05 110.67 162.04 110.10 157.88 109.52 153.71 109.93 152.00 110.34 150.28 110.35 150.23 110.35 150.18 110.37 150.14 110.39 150.09 110.42 150.05 110.45 150.01 110.48 149.97 110.52 149.94 110.56 149.92 110.61 149.90 110.66 149.88 110.70 149.87 110.75 149.87 110.80 149.87 110.85 149.88 110.90 149.90 110.94 149.92 110.99 149.94 111.03 149.97 111.06 150.01 111.09 150.05 111.12 150.09 111.14 150.14 111.16 150.18 111.16 150.23 111.17 150.28 111.17 150.28 Z"></path><path fill="#073b4c" d="M 103.46 151.56 Q 103.46 151.56 106.02 151.19 108.57 150.82 110.20 150.01 111.83 149.19 113.61 148.31 115.39 147.43 117.41 145.84 119.43 144.24 119.58 144.15 119.73 144.06 119.90 144.03 120.07 143.99 120.24 144.01 120.42 144.03 120.57 144.10 120.73 144.18 120.86 144.30 120.98 144.41 121.06 144.57 121.14 144.72 121.17 144.89 121.20 145.07 121.17 145.24 121.14 145.41 121.06 145.56 120.98 145.71 120.85 145.83 120.73 145.95 120.57 146.03 120.41 146.10 120.24 146.12 120.06 146.13 119.89 146.10 119.72 146.06 119.58 145.97 119.43 145.88 119.32 145.75 119.20 145.61 119.14 145.45 119.08 145.29 119.07 145.12 119.06 144.94 119.11 144.78 119.15 144.61 119.25 144.46 119.35 144.32 119.49 144.22 119.63 144.11 119.79 144.06 119.96 144.00 120.13 144.00 120.30 144.00 120.47 144.06 120.63 144.12 120.77 144.22 120.91 144.33 121.00 144.47 121.10 144.61 121.15 144.78 121.19 144.95 121.18 145.12 121.17 145.30 121.11 145.46 121.04 145.62 120.93 145.75 120.82 145.88 120.82 145.88 120.82 145.88 118.68 147.80 116.55 149.71 114.74 150.62 112.94 151.53 110.92 152.45 108.90 153.37 106.31 153.58 103.71 153.78 103.58 153.78 103.44 153.78 103.31 153.75 103.18 153.71 103.06 153.65 102.94 153.59 102.84 153.49 102.74 153.40 102.67 153.29 102.59 153.18 102.54 153.05 102.50 152.93 102.48 152.79 102.47 152.66 102.49 152.53 102.50 152.39 102.55 152.27 102.60 152.14 102.68 152.03 102.76 151.92 102.86 151.83 102.96 151.74 103.08 151.68 103.20 151.62 103.33 151.59 103.46 151.56 103.46 151.56 Z"></path><path fill="#073b4c" d="M 108.45 162.05 Q 108.45 162.05 109.21 161.32 109.98 160.59 111.34 160.20 112.70 159.81 114.90 159.33 117.10 158.84 117.17 158.83 117.24 158.82 117.31 158.83 117.38 158.84 117.45 158.88 117.51 158.91 117.56 158.96 117.61 159.02 117.64 159.08 117.67 159.15 117.68 159.22 117.69 159.29 117.67 159.36 117.66 159.43 117.62 159.49 117.59 159.56 117.53 159.60 117.48 159.65 117.41 159.68 117.34 159.70 117.27 159.71 117.20 159.71 117.13 159.69 117.06 159.67 117.00 159.63 116.94 159.59 116.89 159.54 116.85 159.48 116.83 159.41 116.80 159.34 116.80 159.27 116.80 159.20 116.82 159.13 116.85 159.06 116.89 159.00 116.93 158.94 116.99 158.90 117.05 158.86 117.12 158.84 117.19 158.82 117.27 158.83 117.34 158.83 117.40 158.86 117.47 158.88 117.53 158.93 117.58 158.98 117.62 159.04 117.66 159.10 117.67 159.17 117.69 159.24 117.68 159.31 117.67 159.39 117.64 159.45 117.61 159.52 117.56 159.57 117.52 159.62 117.45 159.66 117.39 159.69 117.39 159.69 117.39 159.69 115.38 161.00 113.37 162.31 112.37 162.54 111.38 162.77 110.43 163.18 109.48 163.59 109.38 163.64 109.28 163.69 109.17 163.72 109.06 163.74 108.95 163.74 108.84 163.74 108.73 163.71 108.62 163.68 108.52 163.63 108.42 163.58 108.34 163.50 108.26 163.43 108.20 163.33 108.14 163.24 108.10 163.14 108.06 163.03 108.05 162.92 108.04 162.81 108.05 162.70 108.07 162.59 108.11 162.48 108.15 162.38 108.21 162.29 108.28 162.20 108.36 162.13 108.45 162.05 108.45 162.05 Z"></path><path fill="#073b4c" d="M 121.36 161.31 Q 121.36 161.31 122.27 164.16 123.19 167.00 123.16 168.44 123.13 169.88 123.14 169.94 123.15 169.99 123.14 170.05 123.14 170.10 123.12 170.15 123.11 170.20 123.08 170.25 123.05 170.29 123.01 170.33 122.97 170.37 122.93 170.40 122.88 170.43 122.83 170.44 122.78 170.46 122.72 170.46 122.67 170.46 122.61 170.45 122.56 170.44 122.51 170.42 122.46 170.40 122.42 170.36 122.38 170.33 122.35 170.28 122.31 170.24 122.29 170.19 122.27 170.14 122.27 170.01 122.27 169.87 122.31 169.80 122.34 169.74 122.39 169.69 122.45 169.64 122.51 169.61 122.58 169.58 122.65 169.57 122.72 169.56 122.80 169.58 122.87 169.60 122.93 169.63 122.99 169.67 123.04 169.73 123.08 169.78 123.11 169.85 123.14 169.92 123.14 169.99 123.15 170.06 123.13 170.13 123.11 170.20 123.07 170.26 123.02 170.32 122.97 170.37 122.91 170.41 122.84 170.43 122.77 170.46 122.70 170.46 122.63 170.46 122.56 170.43 122.49 170.41 122.43 170.37 122.37 170.32 122.33 170.26 122.29 170.20 122.27 170.13 122.25 170.06 122.26 169.99 122.26 169.92 122.29 169.85 122.31 169.78 122.36 169.73 122.41 169.67 122.47 169.63 122.53 169.60 122.60 169.58 122.68 169.56 122.75 169.57 122.82 169.58 122.89 169.61 122.95 169.64 123.00 169.69 123.06 169.74 123.09 169.81 123.13 169.87 123.14 169.94 123.15 170.01 123.14 169.95 123.13 169.88 123.14 169.94 123.15 169.99 123.14 170.05 123.14 170.10 123.12 170.15 123.11 170.20 123.08 170.25 123.05 170.29 123.01 170.33 122.97 170.37 122.93 170.40 122.88 170.43 122.83 170.44 122.78 170.46 122.72 170.46 122.67 170.46 122.61 170.45 122.56 170.44 122.51 170.42 122.46 170.40 122.42 170.36 122.38 170.33 122.35 170.28 122.31 170.24 122.29 170.19 122.27 170.14 121.57 168.92 120.87 167.70 120.06 164.82 119.26 161.94 119.24 161.81 119.22 161.68 119.22 161.55 119.23 161.42 119.27 161.29 119.32 161.17 119.38 161.06 119.45 160.94 119.55 160.85 119.64 160.76 119.76 160.69 119.87 160.62 120.00 160.59 120.12 160.55 120.26 160.54 120.39 160.54 120.52 160.56 120.65 160.59 120.77 160.64 120.89 160.70 120.99 160.78 121.09 160.86 121.17 160.97 121.25 161.07 121.31 161.19 121.36 161.31 121.36 161.31 Z"></path><path fill="#073b4c" d="M 120.35 153.36 Q 120.35 153.36 120.46 153.52 120.58 153.68 120.64 153.87 120.69 154.06 120.69 154.26 120.68 154.46 120.61 154.64 120.55 154.83 120.42 154.99 120.30 155.14 120.13 155.25 119.96 155.35 119.77 155.40 119.58 155.45 119.38 155.43 119.18 155.42 119.00 155.34 118.81 155.26 118.67 155.13 118.52 155.00 118.42 154.82 118.32 154.65 118.28 154.45 118.25 154.26 118.27 154.06 118.30 153.86 118.39 153.69 118.48 153.51 118.62 153.37 118.76 153.23 118.94 153.14 119.12 153.05 119.31 153.02 119.51 153.00 119.70 153.03 119.90 153.07 120.07 153.17 120.25 153.27 120.38 153.42 120.51 153.56 120.59 153.75 120.67 153.93 120.69 154.13 120.70 154.33 120.65 154.52 120.61 154.71 120.50 154.88 120.39 155.05 120.24 155.17 120.08 155.30 119.89 155.36 119.71 155.43 119.51 155.44 119.31 155.44 119.12 155.39 118.93 155.33 118.77 155.21 118.61 155.09 118.61 155.09 118.61 155.09 118.39 155.08 118.17 155.06 117.96 154.99 117.75 154.93 117.56 154.81 117.37 154.69 117.22 154.54 117.06 154.38 116.95 154.19 116.84 154.00 116.78 153.79 116.72 153.58 116.70 153.35 116.69 153.13 116.74 152.92 116.78 152.70 116.87 152.50 116.96 152.30 117.10 152.13 117.24 151.96 117.42 151.82 117.59 151.69 117.79 151.60 118.00 151.51 118.21 151.48 118.43 151.44 119.39 152.40 Z"></path><path fill="#073b4c" d="M 129.86 161.31 Q 129.86 161.31 129.12 161.89 128.39 162.46 128.26 163.35 128.14 164.24 128.15 165.56 128.16 166.88 128.13 168.30 128.11 169.72 128.75 170.55 129.38 171.38 129.38 170.74 129.38 170.09 129.31 168.61 129.25 167.14 129.56 165.79 129.86 164.45 130.34 163.43 130.83 162.42 131.33 162.39 131.84 162.36 132.45 162.76 133.06 163.16 134.05 165.03 135.03 166.91 135.68 168.78 136.33 170.64 136.68 172.53 137.03 174.42 136.76 176.47 136.49 178.52 134.90 180.37 133.30 182.22 131.77 182.73 130.24 183.25 128.37 181.63 126.50 180.00 126.46 179.83 126.43 179.66 126.45 179.49 126.47 179.31 126.55 179.16 126.63 179.00 126.75 178.88 126.87 178.75 127.03 178.67 127.18 178.60 127.36 178.57 127.53 178.55 127.70 178.58 127.87 178.61 128.02 178.70 128.18 178.78 128.29 178.91 128.41 179.04 128.48 179.20 128.55 179.36 128.56 179.53 128.58 179.71 128.54 179.87 128.50 180.04 128.40 180.19 128.31 180.34 128.18 180.45 128.04 180.56 127.88 180.62 127.71 180.68 127.54 180.69 127.37 180.69 127.20 180.64 127.03 180.59 126.89 180.49 126.75 180.39 126.65 180.25 126.54 180.11 126.49 179.94 126.44 179.77 126.44 179.60 126.45 179.43 126.51 179.26 126.57 179.10 126.67 178.96 126.78 178.83 126.93 178.73 127.08 178.64 127.24 178.59 127.41 178.55 127.59 178.56 127.76 178.58 127.92 178.64 128.08 178.71 128.21 178.83 128.34 178.94 128.43 179.10 128.52 179.25 128.52 179.25 128.52 179.25 129.11 179.90 129.71 180.56 130.58 180.37 131.46 180.19 132.75 179.03 134.04 177.87 134.32 176.33 134.60 174.80 134.32 173.11 134.05 171.41 133.48 169.70 132.91 167.98 132.10 166.26 131.29 164.54 131.75 164.77 132.21 164.99 131.94 166.09 131.67 167.18 131.56 169.21 131.45 171.24 130.60 172.28 129.75 173.32 128.78 173.24 127.81 173.16 126.73 171.58 125.65 169.99 125.63 168.43 125.61 166.86 125.64 165.22 125.68 163.59 126.20 162.14 126.72 160.69 127.70 160.12 128.68 159.55 128.80 159.50 128.91 159.44 129.03 159.41 129.16 159.38 129.29 159.39 129.41 159.39 129.54 159.42 129.66 159.45 129.77 159.51 129.88 159.57 129.98 159.66 130.07 159.75 130.14 159.85 130.21 159.96 130.26 160.08 130.30 160.20 130.31 160.32 130.33 160.45 130.31 160.58 130.29 160.70 130.24 160.82 130.20 160.94 130.12 161.04 130.05 161.15 129.95 161.23 129.86 161.31 129.86 161.31 Z"></path><path fill="#073b4c" d="M 136.42 160.92 Q 136.42 160.92 137.03 162.28 137.64 163.64 138.16 164.67 138.69 165.70 139.69 166.40 140.70 167.10 141.52 167.67 142.34 168.24 142.63 167.50 142.92 166.76 142.90 165.46 142.87 164.15 141.90 162.49 140.94 160.83 140.82 160.65 140.69 160.48 140.64 160.27 140.58 160.07 140.59 159.85 140.60 159.64 140.68 159.44 140.76 159.24 140.89 159.08 141.03 158.92 141.21 158.81 141.39 158.70 141.60 158.65 141.81 158.60 142.02 158.62 142.23 158.65 142.43 158.74 142.62 158.82 142.78 158.97 142.93 159.12 143.03 159.30 143.13 159.49 143.17 159.70 143.21 159.91 143.17 160.12 143.14 160.33 143.04 160.52 142.94 160.71 142.79 160.86 142.63 161.00 142.44 161.10 142.25 161.19 142.03 161.21 141.82 161.23 141.61 161.19 141.41 161.14 141.22 161.04 141.04 160.93 140.90 160.76 140.76 160.60 140.68 160.41 140.60 160.21 140.59 159.99 140.58 159.78 140.63 159.58 140.69 159.37 140.81 159.19 140.93 159.02 141.10 158.89 141.27 158.76 141.47 158.69 141.67 158.62 141.88 158.62 142.09 158.62 142.30 158.68 142.50 158.75 142.67 158.88 142.84 159.01 142.84 159.01 142.84 159.01 144.18 161.58 145.52 164.15 145.47 165.80 145.42 167.45 144.93 168.71 144.45 169.97 142.78 170.21 141.12 170.44 140.12 169.79 139.13 169.13 137.80 168.02 136.47 166.90 135.83 165.52 135.18 164.15 135.22 162.65 135.26 161.15 135.25 161.08 135.24 161.01 135.26 160.93 135.27 160.86 135.30 160.80 135.32 160.73 135.37 160.68 135.41 160.62 135.47 160.57 135.52 160.53 135.59 160.50 135.65 160.47 135.72 160.45 135.79 160.44 135.86 160.44 135.94 160.45 136.00 160.47 136.07 160.49 136.14 160.52 136.20 160.56 136.25 160.61 136.30 160.66 136.34 160.72 136.38 160.78 136.40 160.85 136.42 160.92 136.42 160.92 Z"></path><path fill="#073b4c" d="M 146.19 156.81 Q 146.19 156.81 147.40 158.19 148.62 159.56 149.59 161.44 150.56 163.32 151.49 165.74 152.41 168.16 152.76 169.47 153.11 170.77 153.14 171.11 153.17 171.44 153.19 171.59 153.21 171.74 153.19 171.89 153.18 172.03 153.13 172.18 153.08 172.32 152.99 172.44 152.91 172.57 152.80 172.67 152.69 172.77 152.55 172.84 152.42 172.91 152.27 172.95 152.13 172.99 151.98 172.99 151.83 172.99 151.68 172.96 151.54 172.92 151.40 172.86 151.27 172.79 151.15 172.69 151.04 172.59 150.95 172.47 150.86 172.35 150.81 172.21 150.75 172.07 150.72 170.79 150.68 169.51 150.13 167.62 149.57 165.74 149.24 163.88 148.91 162.01 149.78 160.09 150.64 158.16 150.64 158.08 150.63 158.00 150.65 157.92 150.67 157.84 150.70 157.76 150.74 157.69 150.79 157.62 150.84 157.56 150.90 157.51 150.97 157.46 151.04 157.43 151.12 157.39 151.20 157.38 151.28 157.37 151.36 157.37 151.45 157.38 151.52 157.40 151.60 157.43 151.67 157.47 151.74 157.51 151.80 157.57 151.86 157.63 151.90 157.70 151.94 157.77 151.96 157.85 151.99 157.93 151.75 157.66 151.52 157.39 151.62 157.44 151.71 157.49 151.79 157.57 151.87 157.65 151.92 157.75 151.97 157.85 151.98 157.96 152.00 158.07 151.98 158.17 151.96 158.28 151.90 158.38 151.85 158.48 151.76 158.55 151.68 158.62 151.58 158.67 151.48 158.71 151.37 158.72 151.26 158.73 151.15 158.70 151.05 158.67 150.95 158.61 150.86 158.55 150.79 158.47 150.72 158.38 150.68 158.28 150.65 158.17 150.64 158.06 150.64 157.95 150.67 157.85 150.70 157.74 150.77 157.65 150.83 157.56 150.92 157.50 151.01 157.44 151.12 157.40 151.22 157.37 151.33 157.37 151.45 157.38 151.55 157.42 151.65 157.45 151.74 157.52 151.82 157.59 151.88 157.69 151.94 157.78 151.97 157.89 152.00 157.99 151.99 158.10 151.98 158.21 151.93 158.31 151.89 158.42 151.82 158.50 151.74 158.58 151.65 158.63 151.55 158.69 151.44 158.71 151.33 158.73 150.99 158.45 150.64 158.16 150.64 158.08 150.63 158.00 150.65 157.92 150.67 157.84 150.70 157.76 150.74 157.69 150.79 157.62 150.84 157.56 150.90 157.51 150.97 157.46 151.04 157.43 151.12 157.39 151.20 157.38 151.28 157.37 151.36 157.37 151.45 157.38 151.52 157.40 151.60 157.43 151.67 157.47 151.74 157.51 151.80 157.57 151.86 157.63 151.90 157.70 151.94 157.77 151.96 157.85 151.99 157.93 151.74 159.75 151.48 161.57 151.78 163.31 152.07 165.05 152.66 167.26 153.24 169.48 153.21 170.46 153.17 171.44 153.19 171.59 153.21 171.74 153.19 171.89 153.18 172.03 153.13 172.18 153.08 172.32 152.99 172.44 152.91 172.57 152.80 172.67 152.69 172.77 152.55 172.84 152.42 172.91 152.27 172.95 152.13 172.99 151.98 172.99 151.83 172.99 151.68 172.96 151.54 172.93 151.40 172.86 151.27 172.79 151.15 172.69 151.04 172.59 150.95 172.47 150.86 172.35 150.81 172.21 150.75 172.07 150.75 171.72 150.76 171.38 150.46 170.19 150.16 169.01 149.29 166.71 148.43 164.40 147.58 162.73 146.74 161.05 145.67 159.57 144.60 158.08 144.54 157.98 144.47 157.87 144.43 157.76 144.40 157.64 144.39 157.52 144.38 157.40 144.40 157.28 144.42 157.16 144.47 157.04 144.52 156.93 144.59 156.83 144.67 156.74 144.76 156.66 144.86 156.58 144.97 156.53 145.08 156.48 145.20 156.46 145.32 156.44 145.44 156.44 145.57 156.45 145.68 156.48 145.80 156.52 145.91 156.58 146.01 156.64 146.10 156.73 146.19 156.81 146.19 156.81 Z"></path><path fill="#073b4c" d="M 158.89 157.79 Q 158.89 157.79 157.84 160.97 156.80 164.14 156.81 165.24 156.83 166.34 156.83 167.49 156.84 168.64 157.11 169.09 157.39 169.54 157.70 168.86 158.01 168.19 158.22 166.67 158.44 165.14 158.75 163.36 159.06 161.58 159.10 160.18 159.13 158.77 159.14 158.13 159.15 157.49 159.17 157.35 159.19 157.21 159.24 157.08 159.29 156.95 159.37 156.83 159.45 156.72 159.56 156.62 159.67 156.53 159.79 156.47 159.92 156.40 160.06 156.37 160.19 156.34 160.33 156.34 160.48 156.34 160.61 156.37 160.75 156.41 160.88 156.48 161.00 156.54 161.11 156.64 161.21 156.73 161.29 156.85 161.37 156.97 161.42 157.10 161.47 157.23 161.48 157.37 161.50 157.51 161.54 158.34 161.57 159.16 161.85 160.51 162.13 161.86 162.49 163.50 162.85 165.15 163.05 165.21 163.24 165.27 163.41 165.39 163.57 165.50 163.70 165.67 163.82 165.83 163.88 166.03 163.94 166.22 163.93 166.43 163.93 166.63 163.86 166.83 163.79 167.02 163.66 167.18 163.54 167.34 163.37 167.45 163.19 167.56 163.00 167.61 162.80 167.66 162.59 167.65 162.39 167.63 162.20 167.55 162.01 167.47 161.86 167.34 161.71 167.20 161.61 167.02 161.50 166.85 161.46 166.65 161.42 166.45 161.45 166.24 161.48 166.04 161.57 165.86 161.66 165.67 161.80 165.53 161.94 165.38 162.13 165.29 162.31 165.20 162.51 165.17 162.71 165.14 162.91 165.18 163.12 165.21 163.29 165.31 163.47 165.41 163.61 165.56 163.75 165.72 163.83 165.90 163.91 166.09 163.93 166.29 163.95 166.50 163.90 166.70 163.85 166.90 163.74 167.07 163.63 167.24 163.47 167.37 163.32 167.50 163.13 167.57 162.93 167.64 162.73 167.65 162.52 167.66 162.53 167.66 162.53 167.66 161.10 165.00 159.67 162.34 159.37 160.75 159.08 159.17 159.11 158.33 159.15 157.50 159.17 157.35 159.19 157.21 159.24 157.08 159.29 156.95 159.37 156.83 159.45 156.72 159.56 156.62 159.67 156.53 159.79 156.47 159.92 156.40 160.06 156.37 160.19 156.34 160.33 156.34 160.48 156.34 160.61 156.37 160.75 156.41 160.88 156.48 161.00 156.54 161.11 156.64 161.21 156.73 161.29 156.85 161.37 156.97 161.42 157.10 161.47 157.23 161.48 157.37 161.50 157.51 161.51 158.15 161.52 158.79 161.53 160.39 161.53 161.99 161.25 163.79 160.96 165.59 160.56 167.57 160.15 169.56 159.25 170.60 158.35 171.64 157.19 171.61 156.04 171.58 155.49 171.04 154.95 170.50 154.60 169.62 154.26 168.74 154.27 167.49 154.27 166.24 154.39 164.79 154.50 163.34 155.74 160.22 156.98 157.10 157.04 156.99 157.09 156.88 157.17 156.79 157.25 156.70 157.35 156.63 157.45 156.56 157.57 156.51 157.68 156.47 157.80 156.45 157.92 156.43 158.04 156.45 158.17 156.46 158.28 156.50 158.39 156.54 158.50 156.61 158.60 156.68 158.68 156.77 158.76 156.86 158.82 156.97 158.88 157.08 158.91 157.19 158.94 157.31 158.94 157.43 158.94 157.56 158.92 157.68 158.89 157.80 158.89 157.79 Z"></path><path fill="#073b4c" d="M 167.28 155.34 Q 167.28 155.34 166.85 157.38 166.42 159.42 166.80 160.35 167.17 161.29 168.05 161.41 168.94 161.53 170.40 162.43 171.87 163.33 172.10 164.19 172.33 165.05 172.31 165.83 172.28 166.61 169.63 168.27 166.97 169.94 166.79 169.91 166.60 169.89 166.44 169.81 166.27 169.73 166.14 169.60 166.01 169.48 165.92 169.31 165.84 169.15 165.81 168.96 165.78 168.78 165.81 168.60 165.84 168.42 165.93 168.25 166.02 168.09 166.16 167.97 166.29 167.84 166.46 167.77 166.63 167.69 166.81 167.67 167.00 167.65 167.18 167.70 167.36 167.74 167.52 167.84 167.67 167.93 167.79 168.07 167.91 168.22 167.98 168.39 168.04 168.56 168.05 168.75 168.06 168.93 168.01 169.11 167.95 169.29 167.85 169.44 167.74 169.59 167.60 169.70 167.45 169.81 167.27 169.87 167.09 169.92 166.91 169.92 166.72 169.92 166.55 169.86 166.38 169.80 166.23 169.68 166.08 169.57 165.98 169.42 165.88 169.26 165.83 169.08 165.79 168.90 165.80 168.72 165.81 168.54 165.88 168.36 165.95 168.19 166.07 168.05 166.19 167.91 166.35 167.82 166.51 167.73 166.69 167.69 166.88 167.65 166.88 167.65 166.87 167.65 168.37 166.87 169.87 166.10 169.97 165.35 170.07 164.60 169.15 164.33 168.23 164.06 166.78 163.53 165.33 163.01 164.57 161.74 163.82 160.47 163.85 159.59 163.88 158.71 164.60 156.74 165.32 154.78 165.36 154.67 165.41 154.55 165.49 154.45 165.56 154.36 165.65 154.28 165.75 154.20 165.86 154.15 165.97 154.09 166.09 154.07 166.21 154.04 166.33 154.05 166.46 154.05 166.58 154.09 166.69 154.12 166.80 154.18 166.91 154.24 167.00 154.33 167.09 154.41 167.15 154.52 167.22 154.62 167.26 154.74 167.30 154.85 167.31 154.97 167.32 155.10 167.30 155.22 167.28 155.34 167.28 155.34 Z"></path><path fill="#073b4c" d="M 188.22 160.00 Q 188.22 160.00 189.17 161.96 190.11 163.92 191.03 166.63 191.94 169.34 193.41 173.74 194.88 178.15 195.25 180.44 195.63 182.73 195.64 183.68 195.66 184.63 195.66 184.79 195.67 184.95 195.64 185.10 195.60 185.25 195.54 185.40 195.47 185.54 195.37 185.66 195.27 185.78 195.14 185.88 195.02 185.97 194.87 186.03 194.73 186.09 194.57 186.12 194.41 186.14 194.26 186.13 194.10 186.12 193.95 186.07 193.80 186.02 193.67 185.93 193.54 185.85 193.43 185.73 193.32 185.62 193.24 185.48 193.16 185.35 193.12 185.19 193.08 185.04 192.30 183.90 191.53 182.75 190.08 180.72 188.63 178.70 187.06 174.76 185.50 170.81 184.84 168.59 184.19 166.36 184.13 164.09 184.08 161.81 185.01 158.90 185.93 155.99 187.29 154.76 188.66 153.54 190.00 152.86 191.35 152.18 192.63 152.15 193.92 152.12 195.18 153.18 196.44 154.24 196.92 157.15 197.41 160.06 197.14 162.09 196.86 164.13 195.61 165.92 194.35 167.71 191.94 169.18 189.54 170.66 189.32 170.70 189.10 170.74 188.88 170.70 188.66 170.67 188.46 170.57 188.26 170.47 188.11 170.31 187.95 170.15 187.86 169.96 187.76 169.76 187.73 169.54 187.70 169.32 187.75 169.10 187.79 168.88 187.90 168.69 188.01 168.50 188.18 168.35 188.34 168.20 188.55 168.12 188.75 168.03 188.97 168.01 189.20 168.00 189.41 168.05 189.63 168.11 189.81 168.23 190.00 168.35 190.14 168.53 190.27 168.70 190.35 168.91 190.42 169.12 190.43 169.34 190.43 169.56 190.36 169.77 190.30 169.98 190.17 170.16 190.03 170.34 189.85 170.47 189.67 170.60 189.46 170.66 189.25 170.72 189.02 170.72 188.80 170.71 188.60 170.63 188.39 170.55 188.22 170.41 188.04 170.27 187.93 170.08 187.81 169.90 187.76 169.68 187.71 169.46 187.73 169.24 187.75 169.02 187.83 168.82 187.92 168.62 188.07 168.45 188.22 168.29 188.42 168.18 188.61 168.07 188.61 168.07 188.61 168.07 190.41 167.05 192.20 166.03 193.25 164.81 194.31 163.58 194.58 161.97 194.85 160.35 194.69 158.04 194.53 155.72 193.99 155.07 193.46 154.42 192.93 154.44 192.40 154.47 191.35 155.01 190.31 155.56 189.32 156.28 188.32 156.99 187.53 159.41 186.74 161.82 186.74 163.73 186.75 165.64 187.36 167.74 187.98 169.84 189.39 173.51 190.81 177.18 192.29 179.27 193.77 181.37 194.72 183.00 195.66 184.63 195.66 184.79 195.67 184.95 195.64 185.10 195.60 185.25 195.54 185.40 195.47 185.54 195.37 185.66 195.27 185.78 195.14 185.88 195.02 185.97 194.87 186.03 194.73 186.09 194.57 186.12 194.41 186.14 194.26 186.13 194.10 186.12 193.95 186.07 193.80 186.02 193.67 185.93 193.54 185.85 193.43 185.73 193.32 185.62 193.24 185.48 193.16 185.35 193.12 185.19 193.08 185.04 193.06 184.09 193.05 183.14 192.72 181.05 192.40 178.97 190.93 174.57 189.47 170.17 188.59 167.56 187.72 164.95 186.95 162.91 186.18 160.87 186.14 160.74 186.10 160.62 186.10 160.48 186.09 160.35 186.12 160.22 186.14 160.08 186.20 159.96 186.26 159.84 186.34 159.74 186.43 159.63 186.53 159.55 186.64 159.47 186.77 159.42 186.89 159.37 187.02 159.34 187.15 159.32 187.29 159.33 187.42 159.34 187.55 159.39 187.68 159.43 187.79 159.50 187.90 159.57 188.00 159.67 188.09 159.76 188.16 159.88 188.22 160.00 188.22 160.00 Z"></path><path fill="#073b4c" d="M 196.36 140.70 Q 196.36 140.70 198.47 143.20 200.57 145.70 201.89 148.81 203.21 151.92 203.60 153.89 203.98 155.85 205.12 158.97 206.27 162.09 206.92 164.87 207.57 167.65 208.12 168.77 208.66 169.88 208.67 169.25 208.68 168.62 208.71 168.69 208.73 168.77 208.74 168.84 208.75 168.92 208.73 169.00 208.72 169.07 208.69 169.15 208.66 169.22 208.61 169.28 208.57 169.34 208.51 169.39 208.45 169.44 208.38 169.47 208.31 169.51 208.23 169.52 208.15 169.54 208.08 169.53 208.00 169.53 207.93 169.51 207.85 169.49 207.78 169.45 207.72 169.41 207.66 169.36 207.60 169.30 207.56 169.24 207.52 169.17 207.51 168.93 207.50 168.68 207.55 168.59 207.59 168.50 207.67 168.43 207.75 168.36 207.84 168.32 207.94 168.27 208.04 168.26 208.15 168.25 208.25 168.28 208.35 168.30 208.44 168.36 208.53 168.41 208.59 168.49 208.66 168.57 208.70 168.67 208.73 168.77 208.74 168.87 208.74 168.97 208.71 169.07 208.68 169.17 208.62 169.26 208.56 169.34 208.48 169.41 208.40 169.47 208.30 169.50 208.20 169.53 208.10 169.53 207.99 169.53 207.89 169.50 207.79 169.46 207.71 169.40 207.63 169.33 207.57 169.25 207.52 169.16 207.49 169.06 207.46 168.96 207.47 168.85 207.48 168.75 207.52 168.65 207.56 168.56 207.62 168.48 207.69 168.40 207.78 168.35 207.87 168.30 207.97 168.27 208.08 168.25 208.18 168.27 208.28 168.28 208.38 168.32 208.47 168.37 208.55 168.44 208.62 168.51 208.67 168.61 208.72 168.70 208.73 168.80 208.75 168.90 208.72 168.76 208.68 168.62 208.71 168.69 208.73 168.77 208.74 168.84 208.75 168.92 208.73 169.00 208.72 169.07 208.69 169.15 208.66 169.22 208.61 169.28 208.57 169.34 208.51 169.39 208.45 169.44 208.38 169.47 208.31 169.51 208.23 169.52 208.16 169.54 208.08 169.53 208.00 169.53 207.93 169.51 207.85 169.49 207.78 169.45 207.72 169.41 207.66 169.36 207.60 169.30 207.56 169.24 207.52 169.17 206.88 170.12 206.24 171.07 205.59 169.67 204.94 168.27 204.35 165.63 203.76 162.99 202.59 159.66 201.42 156.33 201.13 154.61 200.83 152.89 199.70 150.07 198.56 147.24 196.66 144.59 194.76 141.94 194.70 141.84 194.64 141.74 194.60 141.62 194.57 141.50 194.56 141.38 194.55 141.26 194.57 141.14 194.60 141.02 194.65 140.91 194.70 140.80 194.77 140.70 194.85 140.60 194.94 140.53 195.04 140.45 195.15 140.40 195.26 140.35 195.38 140.33 195.50 140.31 195.63 140.32 195.75 140.33 195.86 140.36 195.98 140.40 196.09 140.46 196.19 140.53 196.28 140.61 196.36 140.70 196.36 140.70 Z"></path><path fill="#073b4c" d="M 211.95 153.71 Q 211.95 153.71 211.02 153.93 210.09 154.15 210.02 154.79 209.95 155.42 209.99 156.96 210.02 158.50 210.03 160.25 210.04 162.01 210.80 163.49 211.56 164.96 212.15 161.58 212.74 158.21 212.79 156.41 212.83 154.62 212.85 153.69 212.87 152.75 212.87 152.43 212.87 152.10 212.89 151.96 212.91 151.81 212.96 151.68 213.01 151.54 213.09 151.42 213.17 151.30 213.28 151.21 213.39 151.11 213.52 151.04 213.65 150.97 213.79 150.94 213.93 150.90 214.08 150.90 214.22 150.90 214.36 150.94 214.50 150.97 214.63 151.04 214.76 151.11 214.87 151.21 214.98 151.30 215.06 151.42 215.14 151.54 215.20 151.68 215.25 151.81 215.27 151.96 215.28 152.10 215.58 153.08 215.88 154.05 216.45 155.44 217.03 156.83 217.85 157.90 218.67 158.97 219.01 160.25 219.36 161.52 220.27 161.44 221.18 161.36 221.32 161.38 221.46 161.40 221.59 161.46 221.71 161.52 221.81 161.62 221.91 161.71 221.98 161.84 222.04 161.96 222.06 162.10 222.08 162.24 222.06 162.38 222.03 162.51 221.97 162.64 221.90 162.76 221.80 162.86 221.69 162.95 221.56 163.01 221.44 163.06 221.30 163.08 221.16 163.09 221.02 163.06 220.89 163.03 220.77 162.95 220.65 162.88 220.56 162.77 220.47 162.66 220.42 162.53 220.37 162.40 220.36 162.26 220.36 162.12 220.40 161.99 220.44 161.85 220.52 161.74 220.60 161.62 220.71 161.54 220.82 161.46 220.96 161.41 221.09 161.37 221.23 161.37 221.37 161.38 221.50 161.42 221.63 161.47 221.74 161.55 221.85 161.64 221.93 161.76 222.01 161.87 222.04 162.01 222.08 162.15 222.07 162.29 222.06 162.43 222.01 162.55 221.95 162.68 221.86 162.79 221.77 162.89 221.65 162.97 221.53 163.04 221.39 163.06 221.25 163.09 221.25 163.09 221.25 163.09 219.18 162.90 217.10 162.72 216.80 161.60 216.49 160.49 215.55 159.15 214.61 157.81 214.01 156.24 213.41 154.68 213.14 153.39 212.87 152.10 212.89 151.96 212.91 151.81 212.96 151.68 213.01 151.54 213.09 151.42 213.17 151.30 213.28 151.21 213.39 151.11 213.52 151.04 213.65 150.97 213.79 150.94 213.93 150.90 214.08 150.90 214.22 150.90 214.36 150.94 214.50 150.97 214.63 151.04 214.76 151.11 214.87 151.21 214.98 151.30 215.06 151.42 215.14 151.54 215.20 151.68 215.25 151.81 215.27 151.96 215.28 152.10 215.28 152.43 215.29 152.75 215.31 153.69 215.32 154.64 215.34 156.54 215.35 158.45 215.04 161.79 214.72 165.14 214.20 166.15 213.69 167.15 212.35 167.36 211.02 167.57 210.15 166.95 209.28 166.34 208.32 164.23 207.37 162.12 207.37 160.30 207.38 158.48 207.45 156.51 207.51 154.54 208.11 153.44 208.71 152.33 210.07 151.98 211.43 151.63 211.56 151.62 211.68 151.60 211.81 151.61 211.94 151.63 212.06 151.67 212.18 151.72 212.29 151.79 212.40 151.87 212.48 151.96 212.57 152.06 212.63 152.17 212.69 152.29 212.72 152.41 212.75 152.54 212.75 152.67 212.75 152.80 212.72 152.92 212.69 153.05 212.63 153.16 212.57 153.28 212.49 153.37 212.40 153.47 212.29 153.54 212.19 153.62 212.07 153.66 211.95 153.71 211.95 153.71 Z"></path><path fill="#073b4c" d="M 219.77 152.32 Q 219.77 152.32 220.80 152.58 221.84 152.83 223.00 155.08 224.17 157.33 224.81 159.50 225.46 161.67 226.04 163.14 226.63 164.61 226.65 165.23 226.68 165.86 226.72 166.01 226.76 166.17 226.76 166.33 226.76 166.50 226.73 166.65 226.69 166.81 226.62 166.96 226.54 167.10 226.44 167.23 226.33 167.35 226.20 167.44 226.06 167.54 225.91 167.60 225.76 167.66 225.60 167.68 225.44 167.70 225.28 167.68 225.12 167.66 224.96 167.61 224.81 167.55 224.67 167.46 224.54 167.37 224.43 167.25 224.32 167.13 224.24 166.99 224.17 166.84 224.11 166.34 224.06 165.83 223.78 163.91 223.50 162.00 222.94 159.69 222.37 157.38 222.34 154.26 222.31 151.15 222.48 150.15 222.66 149.14 223.93 148.63 225.19 148.11 226.03 148.71 226.86 149.30 227.86 150.88 228.85 152.47 229.82 155.53 230.79 158.59 231.28 160.87 231.76 163.15 231.78 163.27 231.81 163.39 231.80 163.51 231.79 163.63 231.75 163.75 231.72 163.86 231.65 163.97 231.59 164.07 231.50 164.16 231.42 164.24 231.31 164.31 231.21 164.37 231.09 164.40 230.98 164.44 230.85 164.45 230.73 164.45 230.61 164.43 230.49 164.41 230.38 164.36 230.27 164.31 230.18 164.23 230.08 164.16 230.01 164.06 229.93 163.96 229.88 163.85 229.83 163.74 229.84 163.41 229.86 163.08 229.94 162.94 230.02 162.80 230.14 162.69 230.27 162.59 230.42 162.52 230.57 162.46 230.73 162.45 230.90 162.44 231.05 162.48 231.21 162.53 231.35 162.62 231.48 162.71 231.58 162.83 231.68 162.96 231.74 163.12 231.79 163.27 231.79 163.43 231.80 163.60 231.75 163.75 231.69 163.91 231.60 164.04 231.50 164.17 231.37 164.26 231.23 164.36 231.08 164.40 230.92 164.45 230.76 164.44 230.59 164.43 230.44 164.38 230.29 164.32 230.16 164.21 230.04 164.11 229.95 163.97 229.86 163.83 229.83 163.67 229.79 163.51 229.81 163.35 229.82 163.19 229.89 163.04 229.96 162.89 230.07 162.77 230.18 162.65 230.32 162.57 230.47 162.49 230.63 162.46 230.79 162.44 230.95 162.46 231.11 162.49 231.25 162.56 231.40 162.64 231.51 162.75 231.63 162.87 231.70 163.02 231.77 163.17 231.79 163.33 231.81 163.49 231.78 163.32 231.76 163.15 231.78 163.27 231.81 163.39 231.80 163.51 231.79 163.63 231.75 163.75 231.72 163.86 231.65 163.97 231.59 164.07 231.50 164.16 231.42 164.24 231.31 164.31 231.21 164.37 231.09 164.40 230.98 164.44 230.85 164.45 230.73 164.45 230.61 164.43 230.49 164.41 230.38 164.36 230.27 164.31 230.18 164.23 230.08 164.16 230.01 164.06 229.93 163.96 229.88 163.85 229.83 163.74 229.05 161.55 228.26 159.37 227.44 156.59 226.62 153.81 225.85 152.49 225.08 151.17 224.72 150.64 224.36 150.12 224.66 150.62 224.96 151.13 224.98 153.94 225.00 156.75 225.60 159.18 226.20 161.62 226.44 163.74 226.68 165.86 226.72 166.01 226.76 166.17 226.76 166.33 226.76 166.50 226.73 166.65 226.69 166.81 226.62 166.96 226.54 167.10 226.44 167.23 226.33 167.35 226.20 167.44 226.06 167.54 225.91 167.60 225.76 167.66 225.60 167.68 225.44 167.70 225.28 167.68 225.12 167.66 224.96 167.61 224.81 167.55 224.67 167.46 224.54 167.37 224.43 167.25 224.32 167.13 224.24 166.99 224.17 166.84 224.14 166.20 224.11 165.55 223.50 163.98 222.89 162.42 222.32 160.41 221.74 158.40 221.12 156.63 220.50 154.85 219.82 154.53 219.14 154.21 219.03 154.16 218.92 154.11 218.83 154.03 218.73 153.96 218.66 153.86 218.59 153.77 218.54 153.65 218.50 153.54 218.48 153.43 218.46 153.31 218.47 153.19 218.48 153.07 218.52 152.96 218.55 152.84 218.62 152.74 218.68 152.64 218.77 152.56 218.85 152.47 218.96 152.41 219.06 152.35 219.18 152.32 219.29 152.29 219.41 152.28 219.53 152.28 219.65 152.30 219.77 152.32 219.77 152.32 Z"></path><path fill="#073b4c" d="M 237.15 149.05 Q 237.15 149.05 236.09 151.08 235.04 153.12 234.79 155.00 234.54 156.88 234.54 158.55 234.54 160.22 235.09 161.57 235.65 162.91 236.53 162.90 237.41 162.88 237.69 162.22 237.96 161.56 238.18 160.06 238.40 158.56 238.45 155.75 238.50 152.93 238.54 151.37 238.58 149.82 238.59 149.18 238.61 148.55 238.62 148.41 238.64 148.27 238.69 148.14 238.74 148.01 238.82 147.90 238.90 147.78 239.00 147.69 239.10 147.60 239.23 147.53 239.35 147.47 239.48 147.44 239.62 147.40 239.76 147.40 239.90 147.40 240.03 147.44 240.17 147.47 240.29 147.53 240.41 147.60 240.52 147.69 240.62 147.78 240.70 147.90 240.78 148.01 240.83 148.14 240.88 148.27 240.89 148.41 240.91 148.55 240.95 149.09 240.98 149.63 241.28 150.95 241.58 152.27 242.39 153.57 243.21 154.86 243.88 156.43 244.55 157.99 245.09 158.80 245.64 159.60 245.95 159.93 246.26 160.25 246.34 160.40 246.41 160.55 246.44 160.71 246.48 160.88 246.47 161.04 246.47 161.21 246.42 161.37 246.38 161.53 246.30 161.67 246.22 161.82 246.10 161.94 245.99 162.06 245.85 162.15 245.71 162.24 245.55 162.30 245.40 162.35 245.23 162.37 245.07 162.38 244.90 162.36 244.74 162.33 244.58 162.27 244.43 162.21 244.30 162.11 244.16 162.01 244.05 161.88 243.95 161.75 244.54 159.93 245.13 158.12 245.15 158.02 245.17 157.93 245.21 157.84 245.26 157.76 245.33 157.69 245.40 157.63 245.49 157.59 245.58 157.55 245.67 157.54 245.77 157.53 245.86 157.55 245.96 157.57 246.04 157.62 246.12 157.67 246.18 157.75 246.24 157.82 246.28 157.91 246.31 158.00 246.32 158.10 246.32 158.20 246.29 158.29 246.27 158.38 246.21 158.46 246.16 158.54 246.08 158.60 246.00 158.66 245.91 158.68 245.82 158.71 245.72 158.71 245.62 158.71 245.53 158.68 245.44 158.65 245.37 158.59 245.29 158.53 245.24 158.45 245.18 158.37 245.16 158.27 245.13 158.18 245.14 158.08 245.15 157.99 245.18 157.90 245.22 157.81 245.29 157.74 245.35 157.66 245.43 157.61 245.52 157.57 245.61 157.55 245.71 157.53 245.80 157.54 245.90 157.55 245.98 157.59 246.07 157.63 246.14 157.70 246.21 157.77 246.25 157.86 246.30 157.94 246.31 158.04 246.33 158.13 246.33 158.13 246.33 158.13 246.29 159.19 246.26 160.25 246.34 160.40 246.41 160.55 246.44 160.71 246.48 160.88 246.47 161.04 246.47 161.21 246.42 161.37 246.38 161.53 246.30 161.67 246.22 161.82 246.10 161.94 245.99 162.06 245.85 162.15 245.71 162.24 245.55 162.30 245.40 162.35 245.23 162.37 245.07 162.38 244.90 162.36 244.74 162.33 244.58 162.27 244.43 162.21 244.30 162.11 244.16 162.01 244.05 161.88 243.95 161.75 243.64 161.43 243.33 161.11 242.68 160.07 242.03 159.03 241.48 157.61 240.93 156.19 240.00 154.50 239.08 152.81 238.81 151.23 238.53 149.64 238.57 149.09 238.61 148.55 238.62 148.41 238.64 148.27 238.69 148.14 238.74 148.01 238.82 147.90 238.90 147.78 239.00 147.69 239.10 147.60 239.23 147.53 239.35 147.47 239.48 147.44 239.62 147.40 239.76 147.40 239.90 147.40 240.03 147.44 240.17 147.47 240.29 147.53 240.41 147.60 240.52 147.69 240.62 147.78 240.70 147.90 240.78 148.01 240.83 148.14 240.88 148.27 240.89 148.41 240.91 148.55 240.92 149.18 240.93 149.82 240.97 151.38 241.01 152.94 241.04 155.98 241.06 159.03 240.66 161.04 240.25 163.04 239.30 164.10 238.36 165.15 237.16 165.27 235.95 165.38 235.05 165.10 234.15 164.81 233.00 162.57 231.84 160.32 231.87 158.39 231.90 156.46 232.32 154.16 232.74 151.87 233.97 149.90 235.20 147.93 235.28 147.82 235.36 147.71 235.46 147.63 235.57 147.54 235.69 147.48 235.81 147.42 235.95 147.40 236.08 147.37 236.21 147.37 236.35 147.38 236.48 147.41 236.61 147.45 236.73 147.52 236.85 147.59 236.95 147.68 237.04 147.77 237.12 147.89 237.19 148.00 237.23 148.13 237.28 148.26 237.29 148.39 237.30 148.53 237.28 148.66 237.26 148.80 237.20 148.92 237.15 149.05 237.15 149.05 Z"></path><path fill="#073b4c" d="M 251.00 145.87 Q 251.00 145.87 250.26 148.47 249.51 151.08 249.48 151.48 249.44 151.88 249.37 152.03 249.30 152.18 249.19 152.31 249.08 152.44 248.95 152.54 248.82 152.64 248.66 152.71 248.51 152.77 248.34 152.80 248.18 152.83 248.01 152.82 247.84 152.80 247.69 152.75 247.53 152.70 247.39 152.61 247.24 152.52 247.13 152.40 247.01 152.28 246.93 152.13 246.84 151.99 246.80 151.83 246.75 151.66 246.74 151.50 246.74 151.33 246.77 151.17 246.80 151.00 248.05 150.55 249.30 150.10 250.17 150.11 251.03 150.12 252.50 150.13 253.97 150.14 255.80 150.63 257.64 151.12 258.26 152.23 258.88 153.33 258.93 155.11 258.98 156.89 257.74 158.72 256.49 160.55 254.55 162.59 252.60 164.62 252.40 164.63 252.20 164.65 252.01 164.59 251.81 164.54 251.65 164.43 251.48 164.32 251.36 164.16 251.24 164.00 251.17 163.81 251.11 163.62 251.11 163.42 251.11 163.22 251.17 163.03 251.23 162.84 251.35 162.68 251.47 162.52 251.64 162.40 251.80 162.29 252.00 162.24 252.19 162.18 252.39 162.19 252.59 162.20 252.78 162.28 252.96 162.35 253.12 162.48 253.27 162.61 253.37 162.78 253.48 162.95 253.52 163.15 253.57 163.34 253.55 163.54 253.52 163.74 253.44 163.92 253.36 164.11 253.22 164.25 253.08 164.40 252.91 164.49 252.73 164.59 252.53 164.62 252.33 164.65 252.14 164.62 251.94 164.59 251.76 164.50 251.58 164.40 251.45 164.26 251.31 164.11 251.22 163.93 251.14 163.75 251.11 163.55 251.09 163.35 251.13 163.16 251.18 162.96 251.28 162.79 251.38 162.62 251.53 162.49 251.69 162.35 251.87 162.28 252.06 162.21 252.06 162.21 252.06 162.21 253.17 160.53 254.28 158.86 255.32 157.71 256.36 156.56 256.38 155.40 256.40 154.25 256.33 153.61 256.25 152.97 255.10 152.89 253.96 152.81 252.49 152.82 251.03 152.83 250.23 152.36 249.44 151.88 249.37 152.03 249.30 152.18 249.19 152.31 249.08 152.44 248.95 152.54 248.82 152.64 248.66 152.71 248.51 152.77 248.34 152.80 248.18 152.83 248.01 152.82 247.84 152.80 247.69 152.75 247.53 152.70 247.39 152.61 247.24 152.52 247.13 152.40 247.01 152.28 246.93 152.13 246.84 151.99 246.80 151.83 246.75 151.66 246.74 151.50 246.74 151.33 246.77 151.17 246.80 151.00 246.84 150.61 246.88 150.22 247.85 147.68 248.82 145.14 248.88 145.02 248.94 144.89 249.03 144.78 249.11 144.68 249.23 144.59 249.34 144.51 249.46 144.45 249.59 144.40 249.73 144.38 249.86 144.36 250.00 144.37 250.14 144.38 250.27 144.42 250.40 144.47 250.52 144.54 250.64 144.61 250.73 144.71 250.83 144.81 250.90 144.93 250.97 145.05 251.01 145.19 251.04 145.32 251.05 145.46 251.06 145.60 251.03 145.73 251.00 145.87 251.00 145.87 Z"></path><path fill="#073b4c" d="M 178.24 185.57 Q 178.24 185.57 181.39 185.45 184.53 185.34 187.98 184.76 191.44 184.18 193.82 183.59 196.20 183.00 201.76 181.82 207.32 180.64 213.48 178.61 219.64 176.57 226.21 174.49 232.77 172.40 238.22 170.88 243.67 169.37 248.51 168.43 253.34 167.50 253.55 167.52 253.76 167.53 253.96 167.62 254.15 167.70 254.31 167.84 254.47 167.98 254.57 168.16 254.68 168.35 254.72 168.55 254.76 168.76 254.73 168.97 254.70 169.18 254.61 169.37 254.51 169.56 254.37 169.71 254.22 169.86 254.03 169.95 253.84 170.05 253.63 170.07 253.42 170.10 253.21 170.06 253.01 170.03 252.82 169.92 252.64 169.82 252.50 169.66 252.36 169.50 252.27 169.31 252.19 169.12 252.17 168.91 252.15 168.70 252.20 168.49 252.25 168.29 252.37 168.11 252.48 167.93 252.64 167.80 252.81 167.67 253.01 167.59 253.20 167.52 253.41 167.51 253.63 167.51 253.83 167.57 254.03 167.63 254.20 167.75 254.37 167.87 254.50 168.05 254.62 168.22 254.68 168.42 254.74 168.62 254.74 168.83 254.73 169.04 254.66 169.24 254.59 169.44 254.46 169.60 254.33 169.77 254.15 169.88 253.97 170.00 253.77 170.05 253.56 170.10 253.56 170.10 253.56 170.10 249.00 171.09 244.43 172.08 239.04 173.60 233.64 175.12 227.09 177.21 220.54 179.30 214.22 181.37 207.91 183.44 202.39 184.60 196.88 185.76 194.38 186.36 191.89 186.96 188.21 187.52 184.54 188.09 181.39 187.97 178.24 187.86 178.11 187.84 177.97 187.82 177.84 187.77 177.71 187.73 177.60 187.65 177.48 187.57 177.39 187.47 177.30 187.36 177.24 187.24 177.17 187.12 177.14 186.98 177.11 186.85 177.11 186.71 177.11 186.58 177.14 186.44 177.17 186.31 177.24 186.19 177.30 186.06 177.39 185.96 177.48 185.86 177.60 185.78 177.71 185.70 177.84 185.65 177.97 185.60 178.11 185.59 178.24 185.57 178.24 185.57 Z"></path><path fill="#073b4c" d="M 193.40 190.45 Q 193.40 190.45 197.35 188.88 201.30 187.30 206.11 186.07 210.91 184.83 216.80 183.07 222.69 181.30 229.20 178.95 235.70 176.60 242.82 173.67 249.94 170.74 252.54 170.34 255.14 169.94 256.03 170.70 256.91 171.46 255.90 174.20 254.88 176.95 254.79 177.05 254.69 177.16 254.57 177.23 254.45 177.30 254.31 177.33 254.17 177.35 254.03 177.34 253.89 177.32 253.76 177.25 253.63 177.19 253.53 177.09 253.43 176.99 253.37 176.87 253.31 176.74 253.29 176.60 253.27 176.46 253.29 176.32 253.32 176.18 253.39 176.05 253.46 175.93 253.56 175.84 253.67 175.74 253.80 175.68 253.93 175.63 254.07 175.62 254.21 175.60 254.35 175.64 254.49 175.67 254.61 175.75 254.73 175.82 254.82 175.93 254.91 176.04 254.95 176.18 255.00 176.31 255.01 176.45 255.01 176.59 254.97 176.73 254.93 176.87 254.85 176.98 254.76 177.10 254.65 177.18 254.54 177.26 254.40 177.30 254.26 177.35 254.12 177.34 253.98 177.34 253.85 177.29 253.71 177.24 253.60 177.15 253.49 177.07 253.42 176.95 253.34 176.83 253.30 176.69 253.27 176.55 253.28 176.41 253.29 176.27 253.35 176.14 253.40 176.01 253.40 176.01 253.40 176.01 254.21 174.26 255.02 172.50 253.01 172.93 251.01 173.35 243.84 176.34 236.68 179.32 230.10 181.70 223.52 184.08 217.57 185.84 211.62 187.61 206.93 188.78 202.25 189.96 198.20 191.24 194.14 192.53 194.01 192.56 193.88 192.59 193.75 192.59 193.62 192.58 193.49 192.55 193.36 192.51 193.24 192.45 193.13 192.39 193.03 192.30 192.93 192.21 192.86 192.10 192.78 191.98 192.74 191.86 192.69 191.73 192.68 191.60 192.67 191.47 192.69 191.34 192.70 191.21 192.75 191.08 192.80 190.96 192.88 190.85 192.96 190.74 193.06 190.66 193.16 190.57 193.28 190.51 193.40 190.45 193.40 190.45 Z"></path>
</svg>